{
  "accessors": [
    {
      "bufferView": 1,
      "componentType": 5126,
      "count": 65532,
      "max": [
        0.9000766277313232,
        1.1247057914733887,
        7.987146377563477
      ],
      "min": [
        -0.9555116891860962,
        -1.8115533590316772,
        3.5611844062805176
      ],
      "type": "VEC3"
    },
    {
      "bufferView": 1,
      "byteOffset": 786384,
      "componentType": 5126,
      "count": 65532,
      "max": [
        0.9974377155303955,
        0.9962625503540039,
        0.9999985694885254
      ],
      "min": [
        -0.9999108910560608,
        -0.9999896287918091,
        -0.9999769330024719
      ],
      "type": "VEC3"
    },
    {
      "bufferView": 0,
      "componentType": 5125,
      "count": 354675,
      "type": "SCALAR"
    },
    {
      "bufferView": 1,
      "byteOffset": 1572768,
      "componentType": 5126,
      "count": 65532,
      "max": [
        0.8742931485176086,
        1.2948120832443237,
        5.65070915222168
      ],
      "min": [
        -1.6734108924865723,
        -1.7554868459701538,
        3.624767541885376
      ],
      "type": "VEC3"
    },
    {
      "bufferView": 1,
      "byteOffset": 2359152,
      "componentType": 5126,
      "count": 65532,
      "max": [
        0.9999724626541138,
        0.9999819397926331,
        0.9999932646751404
      ],
      "min": [
        -0.9999654293060303,
        -0.9999896287918091,
        -0.9967893958091736
      ],
      "type": "VEC3"
    },
    {
      "bufferView": 0,
      "byteOffset": 1418700,
      "componentType": 5125,
      "count": 362913,
      "type": "SCALAR"
    },
    {
      "bufferView": 1,
      "byteOffset": 3145536,
      "componentType": 5126,
      "count": 65532,
      "max": [
        0.9700664281845093,
        1.674755334854126,
        6.034496307373047
      ],
      "min": [
        -1.5990185737609863,
        -1.7592226266860962,
        4.075360298156738
      ],
      "type": "VEC3"
    },
    {
      "bufferView": 1,
      "byteOffset": 3931920,
      "componentType": 5126,
      "count": 65532,
      "max": [
        0.9999914765357971,
        0.9999516010284424,
        0.9653528928756714
      ],
      "min": [
        -0.9999876618385315,
        -0.9999822378158569,
        -0.9998446106910706
      ],
      "type": "VEC3"
    },
    {
      "bufferView": 0,
      "byteOffset": 2870352,
      "componentType": 5125,
      "count": 360297,
      "type": "SCALAR"
    },
    {
      "bufferView": 1,
      "byteOffset": 4718304,
      "componentType": 5126,
      "count": 65532,
      "max": [
        0.9654861688613892,
        1.587549090385437,
        7.945583343505859
      ],
      "min": [
        -1.2890366315841675,
        -1.7520350217819214,
        4.442577362060547
      ],
      "type": "VEC3"
    },
    {
      "bufferView": 1,
      "byteOffset": 5504688,
      "componentType": 5126,
      "count": 65532,
      "max": [
        0.9995589852333069,
        0.9999796152114868,
        0.9999798536300659
      ],
      "min": [
        -0.9999416470527649,
        -0.9999886751174927,
        -0.9996452927589417
      ],
      "type": "VEC3"
    },
    {
      "bufferView": 0,
      "byteOffset": 4311540,
      "componentType": 5125,
      "count": 328593,
      "type": "SCALAR"
    },
    {
      "bufferView": 1,
      "byteOffset": 6291072,
      "componentType": 5126,
      "count": 65532,
      "max": [
        0.05852687358856201,
        1.2986462116241455,
        7.365212917327881
      ],
      "min": [
        -1.184973955154419,
        -0.7183338403701782,
        5.312959671020508
      ],
      "type": "VEC3"
    },
    {
      "bufferView": 1,
      "byteOffset": 7077456,
      "componentType": 5126,
      "count": 65532,
      "max": [
        0.9997840523719788,
        0.9999328255653381,
        0.9993109703063965
      ],
      "min": [
        -0.9999656081199646,
        -0.9999712705612183,
        -0.9999156594276428
      ],
      "type": "VEC3"
    },
    {
      "bufferView": 0,
      "byteOffset": 5625912,
      "componentType": 5125,
      "count": 338721,
      "type": "SCALAR"
    },
    {
      "bufferView": 1,
      "byteOffset": 7863840,
      "componentType": 5126,
      "count": 65532,
      "max": [
        0.6742844581604004,
        1.4298228025436401,
        7.433309555053711
      ],
      "min": [
        -1.010825276374817,
        -0.9441288709640503,
        4.5431952476501465
      ],
      "type": "VEC3"
    },
    {
      "bufferView": 1,
      "byteOffset": 8650224,
      "componentType": 5126,
      "count": 65532,
      "max": [
        0.9999546408653259,
        0.9999913573265076,
        0.9992874264717102
      ],
      "min": [
        -0.9999939799308777,
        -0.9975078701972961,
        -0.999996542930603
      ],
      "type": "VEC3"
    },
    {
      "bufferView": 0,
      "byteOffset": 6980796,
      "componentType": 5125,
      "count": 341094,
      "type": "SCALAR"
    },
    {
      "bufferView": 1,
      "byteOffset": 9436608,
      "componentType": 5126,
      "count": 65532,
      "max": [
        0.9683691263198853,
        0.9827325940132141,
        7.987146377563477
      ],
      "min": [
        -0.7513042688369751,
        -1.6812015771865845,
        4.786105155944824
      ],
      "type": "VEC3"
    },
    {
      "bufferView": 1,
      "byteOffset": 10222992,
      "componentType": 5126,
      "count": 65532,
      "max": [
        0.9999988675117493,
        0.9999998211860657,
        0.9999894499778748
      ],
      "min": [
        -0.9999664425849915,
        -0.9999886751174927,
        -0.999914824962616
      ],
      "type": "VEC3"
    },
    {
      "bufferView": 0,
      "byteOffset": 8345172,
      "componentType": 5125,
      "count": 323841,
      "type": "SCALAR"
    },
    {
      "bufferView": 1,
      "byteOffset": 11009376,
      "componentType": 5126,
      "count": 65532,
      "max": [
        0.928173303604126,
        0.9339888095855713,
        7.976226806640625
      ],
      "min": [
        -0.6818580031394958,
        -1.041338324546814,
        5.3817644119262695
      ],
      "type": "VEC3"
    },
    {
      "bufferView": 1,
      "byteOffset": 11795760,
      "componentType": 5126,
      "count": 65532,
      "max": [
        0.99833744764328,
        0.9999635815620422,
        0.9999894499778748
      ],
      "min": [
        -0.9999664425849915,
        -0.9999645352363586,
        -0.9871580004692078
      ],
      "type": "VEC3"
    },
    {
      "bufferView": 0,
      "byteOffset": 9640536,
      "componentType": 5125,
      "count": 327513,
      "type": "SCALAR"
    },
    {
      "bufferView": 1,
      "byteOffset": 12582144,
      "componentType": 5126,
      "count": 65532,
      "max": [
        0.8865214586257935,
        0.8512667417526245,
        7.938333034515381
      ],
      "min": [
        -0.5804045796394348,
        -0.9142929315567017,
        5.519750595092773
      ],
      "type": "VEC3"
    },
    {
      "bufferView": 1,
      "byteOffset": 13368528,
      "componentType": 5126,
      "count": 65532,
      "max": [
        0.9999589920043945,
        0.9999932646751404,
        0.9999644160270691
      ],
      "min": [
        -0.9999758005142212,
        -0.9999327659606934,
        -0.9862856268882751
      ],
      "type": "VEC3"
    },
    {
      "bufferView": 0,
      "byteOffset": 10950588,
      "componentType": 5125,
      "count": 321042,
      "type": "SCALAR"
    },
    {
      "bufferView": 1,
      "byteOffset": 14154912,
      "componentType": 5126,
      "count": 65532,
      "max": [
        0.8091141581535339,
        0.7022241353988647,
        7.595973491668701
      ],
      "min": [
        -0.3736242651939392,
        -0.6591500043869019,
        5.729062080383301
      ],
      "type": "VEC3"
    },
    {
      "bufferView": 1,
      "byteOffset": 14941296,
      "componentType": 5126,
      "count": 65532,
      "max": [
        0.999998152256012,
        0.9999982118606567,
        0.999909520149231
      ],
      "min": [
        -0.9992316365242004,
        -0.9999769926071167,
        -0.99750155210495
      ],
      "type": "VEC3"
    },
    {
      "bufferView": 0,
      "byteOffset": 12234756,
      "componentType": 5125,
      "count": 360099,
      "type": "SCALAR"
    },
    {
      "bufferView": 1,
      "byteOffset": 15727680,
      "componentType": 5126,
      "count": 65532,
      "max": [
        0.9641976356506348,
        1.1620206832885742,
        7.927628517150879
      ],
      "min": [
        -1.1587185859680176,
        -1.410441279411316,
        4.574280738830566
      ],
      "type": "VEC3"
    },
    {
      "bufferView": 1,
      "byteOffset": 16514064,
      "componentType": 5126,
      "count": 65532,
      "max": [
        0.9999763369560242,
        0.9999982118606567,
        0.999687671661377
      ],
      "min": [
        -0.9999484419822693,
        -0.9999769926071167,
        -0.9999577403068542
      ],
      "type": "VEC3"
    },
    {
      "bufferView": 0,
      "byteOffset": 13675152,
      "componentType": 5125,
      "count": 278568,
      "type": "SCALAR"
    },
    {
      "bufferView": 1,
      "byteOffset": 17300448,
      "componentType": 5126,
      "count": 65532,
      "max": [
        0.9683417081832886,
        1.4339134693145752,
        7.465928077697754
      ],
      "min": [
        -1.0577706098556519,
        -1.6014000177383423,
        4.625688076019287
      ],
      "type": "VEC3"
    },
    {
      "bufferView": 1,
      "byteOffset": 18086832,
      "componentType": 5126,
      "count": 65532,
      "max": [
        0.9999988675117493,
        0.9999160766601563,
        0.999816358089447
      ],
      "min": [
        -0.999927818775177,
        -0.9998465180397034,
        -0.9999160766601563
      ],
      "type": "VEC3"
    },
    {
      "bufferView": 0,
      "byteOffset": 14789424,
      "componentType": 5125,
      "count": 282972,
      "type": "SCALAR"
    },
    {
      "bufferView": 1,
      "byteOffset": 18873216,
      "componentType": 5126,
      "count": 55713,
      "max": [
        0.969435453414917,
        1.534695029258728,
        7.465928077697754
      ],
      "min": [
        -1.2346699237823486,
        -1.731272578239441,
        4.516074180603027
      ],
      "type": "VEC3"
    },
    {
      "bufferView": 1,
      "byteOffset": 19541772,
      "componentType": 5126,
      "count": 55713,
      "max": [
        0.9999546408653259,
        0.9999796152114868,
        0.9999798536300659
      ],
      "min": [
        -0.9999562501907349,
        -0.999994695186615,
        -0.9999780654907227
      ],
      "type": "VEC3"
    },
    {
      "bufferView": 0,
      "byteOffset": 15921312,
      "componentType": 5125,
      "count": 203568,
      "type": "SCALAR"
    }
  ],
  "asset": {
    "extras": {
      "author": "BlenderBurbax (https://sketchfab.com/Burbax)",
      "license": "CC-BY-4.0 (http://creativecommons.org/licenses/by/4.0/)",
      "source": "https://sketchfab.com/3d-models/emperor-menelik-of-ethiopia-7f1d54edb66b445c8ba17aeffe083920",
      "title": "Emperor Menelik of Ethiopia"
    },
    "generator": "Sketchfab-15.36.0",
    "version": "2.0"
  },
  "bufferViews": [
    {
      "buffer": 0,
      "byteLength": 16735584,
      "name": "floatBufferViews",
      "target": 34963
    },
    {
      "buffer": 0,
      "byteLength": 20210328,
      "byteOffset": 16735584,
      "byteStride": 12,
      "name": "floatBufferViews",
      "target": 34962
    }
  ],
  "buffers": [
    {
      "byteLength": 36945912,
      "uri": "scene.bin"
    }
  ],
  "materials": [
    {
      "doubleSided": true,
      "name": "Scene_-_Root",
      "pbrMetallicRoughness": {
        "metallicFactor": 0.0,
        "roughnessFactor": 0.6
      }
    }
  ],
  "meshes": [
    {
      "name": "Object_0",
      "primitives": [
        {
          "attributes": {
            "NORMAL": 1,
            "POSITION": 0
          },
          "indices": 2,
          "material": 0,
          "mode": 4
        }
      ]
    },
    {
      "name": "Object_1",
      "primitives": [
        {
          "attributes": {
            "NORMAL": 4,
            "POSITION": 3
          },
          "indices": 5,
          "material": 0,
          "mode": 4
        }
      ]
    },
    {
      "name": "Object_2",
      "primitives": [
        {
          "attributes": {
            "NORMAL": 7,
            "POSITION": 6
          },
          "indices": 8,
          "material": 0,
          "mode": 4
        }
      ]
    },
    {
      "name": "Object_3",
      "primitives": [
        {
          "attributes": {
            "NORMAL": 10,
            "POSITION": 9
          },
          "indices": 11,
          "material": 0,
          "mode": 4
        }
      ]
    },
    {
      "name": "Object_4",
      "primitives": [
        {
          "attributes": {
            "NORMAL": 13,
            "POSITION": 12
          },
          "indices": 14,
          "material": 0,
          "mode": 4
        }
      ]
    },
    {
      "name": "Object_5",
      "primitives": [
        {
          "attributes": {
            "NORMAL": 16,
            "POSITION": 15
          },
          "indices": 17,
          "material": 0,
          "mode": 4
        }
      ]
    },
    {
      "name": "Object_6",
      "primitives": [
        {
          "attributes": {
            "NORMAL": 19,
            "POSITION": 18
          },
          "indices": 20,
          "material": 0,
          "mode": 4
        }
      ]
    },
    {
      "name": "Object_7",
      "primitives": [
        {
          "attributes": {
            "NORMAL": 22,
            "POSITION": 21
          },
          "indices": 23,
          "material": 0,
          "mode": 4
        }
      ]
    },
    {
      "name": "Object_8",
      "primitives": [
        {
          "attributes": {
            "NORMAL": 25,
            "POSITION": 24
          },
          "indices": 26,
          "material": 0,
          "mode": 4
        }
      ]
    },
    {
      "name": "Object_9",
      "primitives": [
        {
          "attributes": {
            "NORMAL": 28,
            "POSITION": 27
          },
          "indices": 29,
          "material": 0,
          "mode": 4
        }
      ]
    },
    {
      "name": "Object_10",
      "primitives": [
        {
          "attributes": {
            "NORMAL": 31,
            "POSITION": 30
          },
          "indices": 32,
          "material": 0,
          "mode": 4
        }
      ]
    },
    {
      "name": "Object_11",
      "primitives": [
        {
          "attributes": {
            "NORMAL": 34,
            "POSITION": 33
          },
          "indices": 35,
          "material": 0,
          "mode": 4
        }
      ]
    },
    {
      "name": "Object_12",
      "primitives": [
        {
          "attributes": {
            "NORMAL": 37,
            "POSITION": 36
          },
          "indices": 38,
          "material": 0,
          "mode": 4
        }
      ]
    }
  ],
  "nodes": [
    {
      "children": [
        1
      ],
      "matrix": [
        1.0,
        0.0,
        0.0,
        0.0,
        0.0,
        2.220446049250313e-16,
        -1.0,
        0.0,
        0.0,
        1.0,
        2.220446049250313e-16,
        0.0,
        0.0,
        0.0,
        0.0,
        1.0
      ],
      "name": "Sketchfab_model"
    },
    {
      "children": [
        2,
        3,
        4,
        5,
        6,
        7,
        8,
        9,
        10,
        11,
        12,
        13,
        14
      ],
      "name": "menelik.stl.cleaner.materialmerger.gles"
    },
    {
      "mesh": 0,
      "name": "Object_2"
    },
    {
      "mesh": 1,
      "name": "Object_3"
    },
    {
      "mesh": 2,
      "name": "Object_4"
    },
    {
      "mesh": 3,
      "name": "Object_5"
    },
    {
      "mesh": 4,
      "name": "Object_6"
    },
    {
      "mesh": 5,
      "name": "Object_7"
    },
    {
      "mesh": 6,
      "name": "Object_8"
    },
    {
      "mesh": 7,
      "name": "Object_9"
    },
    {
      "mesh": 8,
      "name": "Object_10"
    },
    {
      "mesh": 9,
      "name": "Object_11"
    },
    {
      "mesh": 10,
      "name": "Object_12"
    },
    {
      "mesh": 11,
      "name": "Object_13"
    },
    {
      "mesh": 12,
      "name": "Object_14"
    }
  ],
  "scene": 0,
  "scenes": [
    {
      "name": "Sketchfab_Scene",
      "nodes": [
        0
      ]
    }
  ]
}
